# xmcd CD database file
#
# Track frame offsets:
#	150
#	17682
#	39037
#	60965
#	78525
#	103587
#	126172
#	145485
#	166280
#	187037
#	208075
#	224347
#	247860
#	269442
#
# Disc length: 3854 seconds
#
# Revision: 0
# Processed by: cddbd v1.5.1PL0 Copyright (c) Steve Scherf et al.
# Submitted via: CDex 1.51
#
DISCID=c20f0c0e
DTITLE=ayako ikeda - LUNASOUP
DYEAR=2005
DGENRE=JPop
TTITLE0=道ゆく空
TTITLE1=Timeless
TTITLE2=愛の言葉
TTITLE3=深呼吸ひとつ
TTITLE4=はなびら〜Album Version〜
TTITLE5=三日月
TTITLE6=白いギフト
TTITLE7=そっとキスをしよう
TTITLE8=Silver moon
TTITLE9=I will〜Acoustic Session〜
TTITLE10=穏やかな恋
TTITLE11=朝陽の中で〜Album Version〜
TTITLE12=僕たちのＴｏｍｏｒｒｏｗ
TTITLE13=Life〜Acoustic Session〜
EXTD=YEAR: 2005
EXTT0=
EXTT1=
EXTT2=
EXTT3=
EXTT4=
EXTT5=
EXTT6=
EXTT7=
EXTT8=
EXTT9=
EXTT10=
EXTT11=
EXTT12=
EXTT13=
PLAYORDER=
